inDegrees=no
num_controls=7
num_derivatives=13
num_iterations=102
num_multipliers=7
num_parameters=0
num_slacks=7
num_states=26
objective=6.242683
objective_accelerations=0.388239
objective_balance=0.059976
objective_effort=0.423972
objective_height=5.258834
objective_ligament=0.111662
solver_duration=879.108683
status=Solve_Succeeded
success=true
DataType=double
version=3
OpenSimVersion=4.4-2022-07-23-0e9fedc
endheader
time	/jointset/ground_pelvis/pelvis_tilt/value	/jointset/ground_pelvis/pelvis_tx/value	/jointset/ground_pelvis/pelvis_ty/value	/jointset/hip_r/hip_flexion_r/value	/jointset/hip_r/hip_adduction_r/value	/jointset/hip_r/hip_rotation_r/value	/jointset/back/lumbar_extension/value	/jointset/patellofemoral_r/patellar_flexion_r/value	/jointset/knee_r/knee_flexion_r/value	/jointset/knee_r/knee_adduction_r/value	/jointset/knee_r/knee_rotation_r/value	/jointset/ankle_r/ankle_angle_r/value	/jointset/subtalar_r/subtalar_angle_r/value	/jointset/ground_pelvis/pelvis_tilt/speed	/jointset/ground_pelvis/pelvis_tx/speed	/jointset/ground_pelvis/pelvis_ty/speed	/jointset/hip_r/hip_flexion_r/speed	/jointset/hip_r/hip_adduction_r/speed	/jointset/hip_r/hip_rotation_r/speed	/jointset/back/lumbar_extension/speed	/jointset/patellofemoral_r/patellar_flexion_r/speed	/jointset/knee_r/knee_flexion_r/speed	/jointset/knee_r/knee_adduction_r/speed	/jointset/knee_r/knee_rotation_r/speed	/jointset/ankle_r/ankle_angle_r/speed	/jointset/subtalar_r/subtalar_angle_r/speed	/forceset/tau_hip_flexion_r	/forceset/tau_hip_adduction_r	/forceset/tau_hip_rotation_r	/forceset/tau_knee_flexion_r	/forceset/tau_ankle_angle_r	/forceset/tau_subtalar_angle_r	/forceset/tau_lumbar_extension	lambda_cid13_p0	lambda_cid14_p0	lambda_cid14_p1	lambda_cid14_p2	lambda_cid14_p3	lambda_cid14_p4	lambda_cid14_p5	/jointset/ground_pelvis/pelvis_tilt/accel	/jointset/ground_pelvis/pelvis_tx/accel	/jointset/ground_pelvis/pelvis_ty/accel	/jointset/hip_r/hip_flexion_r/accel	/jointset/hip_r/hip_adduction_r/accel	/jointset/hip_r/hip_rotation_r/accel	/jointset/back/lumbar_extension/accel	/jointset/patellofemoral_r/patellar_flexion_r/accel	/jointset/knee_r/knee_flexion_r/accel	/jointset/knee_r/knee_adduction_r/accel	/jointset/knee_r/knee_rotation_r/accel	/jointset/ankle_r/ankle_angle_r/accel	/jointset/subtalar_r/subtalar_angle_r/accel	gamma_cid13_p0	gamma_cid14_p0	gamma_cid14_p1	gamma_cid14_p2	gamma_cid14_p3	gamma_cid14_p4	gamma_cid14_p5
1	-0.1849999302582828	0.04512981705551729	0.7580711424866127	1.071709538003829	-0.2353712895326464	-0.0791773934230815	-0.4362344750203692	1.129506068564874	1.129506068568166	-0.03046401793319407	0.1745078424932512	0.4363031329819477	0.105601455117697	0.0004648665865510566	0.004849846228459279	0.01288598250803603	-0.03815813780150082	0.001935773300453851	-0.01000267996842795	0.008758734442258196	-0.04679599927758192	-0.04679599927757584	0.0007514776569801885	-0.0001377163812104717	-0.01037976625130383	-0.0005264301021749632	-0.2026381574475367	0.03524667318956768	0.01296249898086256	-0.4253699110090556	-0.0581214984391974	0.004400325585660155	0.2472100293190143	-4.330697892427787	-65.72867909600215	-10.01768996841623	2.536958210777763	19.79107686946689	-769.6298115648837	51.47247743256547	0.9981777320834153	0.04939886836310061	1.198985870305711	-3.894729412572297	0.1303406789733197	-0.5786572735098329	0.4263130763960531	-4.222214061388812	-4.222214061388901	0.4550039986621097	-0.008249205122016021	-1.500998779015744	-0.3522450537692817	1.044087754614199e-09	-2.096282278846016e-09	2.915709988963275e-09	7.711686711073966e-09	5.699660278769959e-09	-4.349250420276e-09	1.719960048450365e-09
1.01	-0.1849465433436161	0.04518089060266092	0.7582597944665184	1.071134431460993	-0.2353455345345209	-0.07930582467053771	-0.4361235473820799	1.128827148361497	1.128827148365667	-0.03043311255551237	0.1745060255203573	0.4361243388245526	0.1055783832650561	0.01015822736507815	0.00537770376562924	0.02484175660170176	-0.07683110066193866	0.003212896164138579	-0.0156826606139812	0.01355973195731723	-0.08900461161009796	-0.08900461161006618	0.005439553805702753	-0.0002231319568693014	-0.02537464327031893	-0.00408960631072423	-0.2031196347783974	0.0352120395380906	0.01296523243489943	-0.4249982385168925	-0.05842445868534976	0.004476683644982613	0.2477553817613981	-4.362612366836331	-65.83188140251703	-9.982927429417702	2.508947975974827	19.70090666596735	-769.9432215846484	51.52882694851507	0.9467726459093105	0.05640627321238744	1.19347312708223	-3.84876866001972	0.1260511943804105	-0.5625310248171629	0.5269338998673602	-4.222670756158601	-4.222670756155445	0.4772035136415799	-0.008302702286006349	-1.498069431308213	-0.3586009681468432	2.012394242840061e-09	-1.037980417340396e-09	6.926450583050876e-09	1.397712447052237e-08	4.978665004200881e-09	-7.572512763381323e-09	6.030498078836524e-09
1.02	-0.1847978513421637	0.04523762814053535	0.7585679241769967	1.070173557501749	-0.2353070776869871	-0.07949102823729975	-0.4359606216064801	1.127725644847435	1.127725644852565	-0.03035502759837608	0.1745034313981078	0.4357957284432537	0.105519630237564	0.01952588395046563	0.005982644374618091	0.0367815286225859	-0.1153116210121185	0.004476143200444158	-0.02135714384920334	0.01915836190472273	-0.1313126614216534	-0.1313126614215948	0.01018739358097337	-0.0002931462724230002	-0.04034301100790791	-0.007662665069249301	-0.2036011121111796	0.03517740588649368	0.0129679658892342	-0.4246265660249147	-0.05872741893137948	0.004553041704142122	0.2483007342020209	-4.414687226081661	-65.94499343020468	-9.944512572013419	2.474201758929345	19.62506359442841	-770.4206689052162	51.61126471188371	0.9330368934564216	0.06481548272606615	1.195785455749357	-3.856240910520394	0.1275655134975065	-0.577557791444097	0.5858395628652031	-4.242101557196753	-4.242101557196615	0.4669567239713143	-0.005168953100620842	-1.495696922731765	-0.3542215637648638	2.596367023957753e-09	-5.730002489494517e-10	8.879693969861839e-09	2.170913772153565e-08	5.024400274730792e-09	-9.467647746013359e-09	7.229365784766387e-09
1.03	-0.1845568960138304	0.04530081796061439	0.758995341944546	1.068828667414923	-0.2352560659061623	-0.07973293495776368	-0.4357379470186378	1.126200650354271	1.126200650356446	-0.03022916123400859	0.1745002100319784	0.4353176149023962	0.1054251120030174	0.02862998443903582	0.006669964031881742	0.0486960998410671	-0.1536489401682407	0.005723289784885999	-0.02702131325938746	0.02549015784649561	-0.1736940065197199	-0.1736940065196494	0.01499634843068602	-0.0003497164203478436	-0.05527055341686428	-0.01124083641602677	-0.2038729772989778	0.03506548490668762	0.01297654848339065	-0.4239951752172458	-0.05888107765114802	0.004613772445564393	0.2486596894875157	-4.48729265710288	-65.98731070153754	-9.895693381918974	2.432318995276808	19.50951727525546	-770.5122942735733	51.67898302005293	0.8938180819766813	0.07288787920775802	1.188401916615655	-3.819858215504254	0.122856098077714	-0.5604108735225017	0.6738899371948728	-4.237317021811234	-4.237317021810108	0.4894362633858024	-0.005683138477839072	-1.489912098007338	-0.3595878028196823	3.17641803255393e-09	-1.140743835494775e-10	1.081194248721079e-08	2.945611602858532e-08	5.077959326333147e-09	-1.134923040864056e-08	8.396481752691575e-09
1.04	-0.1842259553895547	0.04537132051165842	0.7595417272166237	1.06710092797698	-0.2351926692861395	-0.0800313962437828	-0.4354485464058796	1.124251609203011	1.124251609202197	-0.03005489104163051	0.1744964665458002	0.4346905000978215	0.1052948174784507	0.03752294314442821	0.007445190567616804	0.06057502952828897	-0.1918814912182565	0.006953111055762864	-0.03266805697832448	0.03250356688281836	-0.2161219930457841	-0.2161219930457026	0.01986815919694066	-0.0003975702818112461	-0.07014326374703705	-0.01481792307023437	-0.2041448424870995	0.03495356392685654	0.01298513107662578	-0.423363784409635	-0.05903473637087964	0.004674503186980945	0.2490186447727255	-4.580926111164779	-66.03955209263798	-9.843183605895531	2.383647563865953	19.40723254977115	-770.7688252117347	51.77304627269824	0.8908085368218556	0.08239685841943901	1.188657149497455	-3.835287289298748	0.1241004507845071	-0.5740726531952767	0.7221621817752999	-4.25142984279638	-4.251429842796411	0.4795279072792683	-0.003425695807834677	-1.484730506976451	-0.3540046252514122	4.169417489311352e-09	7.245336381337364e-10	1.228053554203288e-08	3.703549455223212e-08	4.824879309277512e-09	-1.278526759737141e-08	9.374885785847834e-09
1.05	-0.1838072315075015	0.04545000720649485	0.7602066592157829	1.064991580107167	-0.2351170774485355	-0.08038622298703352	-0.4350855711970265	1.121878135526994	1.121878135528449	-0.02983156372654619	0.1744923086035327	0.4339149061341694	0.1051287293157083	0.04617506518697154	0.008306077001120278	0.07239867726791172	-0.2299484480286857	0.008161388548000368	-0.03829171856671148	0.04021162316622098	-0.2585721890392473	-0.2585721890391414	0.02481003618341648	-0.0004325248992313593	-0.08496886819843281	-0.01840119047200243	-0.2041183288395836	0.03479521821542529	0.01300137786588309	-0.422553562768057	-0.05896089895305038	0.004682199745611262	0.2491211475440872	-4.696191208947631	-65.99913455421951	-9.79932492224164	2.338459592257875	19.27686014747963	-770.6306040481344	51.82008808777358	0.8454002137394165	0.09002473322991641	1.177311774904007	-3.786453603645297	0.1186190930658504	-0.5556727717521797	0.8131495936641061	-4.241732555330366	-4.241732555327073	0.5034286679041958	-0.00329690980309998	-1.480477077307757	-0.3607023714482627	5.17532158507381e-09	1.575006727200799e-09	1.373463936365102e-08	4.460963558264757e-08	4.562216821326315e-09	-1.420738149004301e-08	1.034739257104257e-08
1.06	-0.1833033891698975	0.0455377208051456	0.7609894463300806	1.062502751923908	-0.235029517297165	-0.08079711831806362	-0.4346419109768999	1.119080176275499	1.119080176279187	-0.02955843542694512	0.1744878478020964	0.4329912557933699	0.1049267655641718	0.05454663426033591	0.009250571330480892	0.08414605255599432	-0.2677775539083447	0.009346773825117583	-0.04388177455882723	0.04864056913136554	-0.3010191081410837	-0.301019108140951	0.02982835611273854	-0.0004581421203842241	-0.09975453917331913	-0.02199304082612136	-0.2040918151918274	0.03463687250413667	0.01301762465412602	-0.4217433411264797	-0.05888706153517301	0.004689896304527705	0.2492236503156695	-4.833812788037073	-65.96860303992739	-9.751663259604184	2.286344282194338	19.15849522087919	-770.6574033139894	51.89401396325484	0.8346979429870708	0.09911843758993921	1.17340265918939	-3.787717103144388	0.1195220077604451	-0.567351533941674	0.8663401181239432	-4.250774464471109	-4.250774464470653	0.4948164958480427	-0.001558216553843877	-1.476743811675996	-0.3557212157221245	5.869507529083311e-09	2.095223865535232e-09	1.342019168828835e-08	5.274573814506159e-08	4.769451287067921e-09	-1.608724840946424e-08	9.524979207668983e-09
1.07	-0.1827171087670266	0.04563529966995851	0.7618892863736361	1.059636763091198	-0.2349302337740072	-0.08126376338512971	-0.4341105578919249	1.115857840020036	1.115857840021119	-0.02923474548059991	0.1744832058215607	0.4319199566440454	0.1046888274400517	0.06267236750234781	0.01027937601540913	0.09580492777973591	-0.3053831604759911	0.01050542402941185	-0.04944142237689524	0.05773371769620874	-0.3434396258351683	-0.3434396258350126	0.03492196033303407	-0.0004687368897805057	-0.1144976023900042	-0.02559572606214585	-0.2037755598118207	0.03437258633252623	0.01304076867074915	-0.4207300532489483	-0.05861301660136866	0.004681717030439791	0.2490620950114528	-4.994621066807682	-65.85040542005324	-9.690082130941068	2.225767825798711	19.00840393515193	-770.2747098755472	51.96698877153582	0.795950877392824	0.1068886424615888	1.15957207234184	-3.74142332505209	0.1133710211125991	-0.5493928168676845	0.9463527011840446	-4.236414173401213	-4.236414173398436	0.5184824938944701	-0.0005699679243460721	-1.471935156135043	-0.3627040711018616	6.547112720339993e-09	2.597874197979628e-09	1.30116721247884e-08	6.091173227832659e-08	5.001680271622977e-09	-1.79914638941381e-08	8.607091368307711e-09
